<?xml version="1.0" encoding="UTF-8"?>
<svg id="Layer_2" data-name="Layer 2" xmlns="http://www.w3.org/2000/svg" xmlns:xlink="http://www.w3.org/1999/xlink" viewBox="0 0 1000 1000">
  <defs>
    <style>
      .cls-1 {
        fill: url(#linear-gradient);
      }

      .cls-2 {
        fill: #fff;
      }

      .cls-3 {
        fill: url(#linear-gradient-3);
      }

      .cls-4 {
        fill: url(#linear-gradient-2);
      }
    </style>
    <linearGradient id="linear-gradient" x1="500" y1="1000" x2="500" y2="-13.24" gradientUnits="userSpaceOnUse">
      <stop offset="0" stop-color="#073924"/>
      <stop offset=".36" stop-color="#084f2e"/>
      <stop offset=".71" stop-color="#085d34"/>
      <stop offset="1" stop-color="#096337"/>
    </linearGradient>
    <linearGradient id="linear-gradient-2" x1="592.49" y1="492.87" x2="646.43" y2="186.97" gradientUnits="userSpaceOnUse">
      <stop offset="0" stop-color="#f96e02"/>
      <stop offset=".16" stop-color="#f98915"/>
      <stop offset=".4" stop-color="#faab2c"/>
      <stop offset=".62" stop-color="#fbc33d"/>
      <stop offset=".83" stop-color="#fbd147"/>
      <stop offset="1" stop-color="#fcd74b"/>
    </linearGradient>
    <linearGradient id="linear-gradient-3" x1="522.53" y1="832.94" x2="585.58" y2="475.38" gradientUnits="userSpaceOnUse">
      <stop offset="0" stop-color="#f9a902"/>
      <stop offset=".26" stop-color="#fabb1f"/>
      <stop offset=".53" stop-color="#fbca37"/>
      <stop offset=".79" stop-color="#fbd345"/>
      <stop offset="1" stop-color="#fcd74b"/>
    </linearGradient>
  </defs>
  <g id="Layer_1-2" data-name="Layer 1">
    <g>
      <rect class="cls-1" width="1000" height="1000"/>
      <rect class="cls-2" x="34.9" y="281.59" width="238.13" height="35.79"/>
      <rect class="cls-2" x="70.01" y="357.38" width="134.73" height="26.33"/>
      <rect class="cls-2" x="88.83" y="417.72" width="143.49" height="35.79"/>
      <path class="cls-4" d="m914.72,332.78c-15.66-3.22-31.33-6.36-46.97-9.64-5.63-1.18-13.54-.99-16.16-4.5-2.89-3.87-1.04-11.29-.96-17.16.06-3.71-.76-9.2,1.29-10.81,7.54-5.88,5.42-13.23,5.31-20.58-.05-3.43-.2-7.55,1.53-10.18,7.36-11.19,2.79-23.53-10.35-26.3-11.34-2.39-22.69-4.68-34.05-6.97-12.03-2.42-22.29,4.89-20.85,16.74.93,7.6-2.5,12.54-5.01,18.52-1.46,3.46-3.34,8.08-2.12,11,1.95,4.7.95,8.3-.7,12.31-1.88,4.56-4.11,9.02-5.59,13.7-1.52,4.8-4.02,5.67-8.9,4.63-28.13-5.99-56.34-11.63-84.52-17.39q-16.02-3.27-15.63-19.34c.15-6.36-.8-12.88,5.34-17.72,1.45-1.14,1.62-4.33,1.69-6.59.11-4.13-.52-8.27-.41-12.4.07-2.41.26-5.33,1.62-7.12,7.47-9.88,2.89-23.15-9.35-25.82-12.1-2.65-24.24-5.11-36.4-7.44-12.2-2.34-21.8,7.93-19.29,20.07.47,2.27-.22,5.04-1.13,7.27-1.41,3.45-3.97,6.49-5.11,10-1.04,3.21-.99,6.81-1.17,10.25-.16,3.13.77,6.5-.12,9.36-1.81,5.82-4.65,11.31-6.82,17.03-1.19,3.13-2.84,4.2-6.32,3.48-32.47-6.74-64.95-13.37-97.45-19.93-3.22-.65-4.91-1.79-4.69-5.41.42-6.88.38-13.79.65-20.68.06-1.52.1-3.8,1.03-4.41,7.16-4.63,5.61-11.43,5.33-18.12-.19-4.72.02-9.04,2.48-13.92,5.15-10.18,2.5-21.02-9.65-23.99-12.6-3.08-25.37-5.52-38.15-7.83-10.89-1.97-20.63,8.27-18.87,18.98.49,2.99.04,6.4-.94,9.3-1.19,3.5-3.79,6.53-5.06,10.02-.96,2.64-1.98,6.32-.84,8.41,2.36,4.34,1.12,7.9-.41,11.71-1.98,4.95-4.37,9.76-6.03,14.81-1.42,4.33-3.67,5.13-8.03,4.19-19.13-4.14-38.34-7.94-57.51-11.85-9.74-1.99-10.36-1.59-12.4,8.09-13.35,63.52-26.69,127.04-40.03,190.56-.52,2.46-1.03,4.91-1.71,8.16l578.66,118.3c.68-3.26,28.57-136,41.98-199.91,1.04-4.96-2.18-9.83-7.21-10.86Zm-428.98-126.25c-6.37,5.04-5.76,12.2-5.93,19.02-.63,25.4.22,50.92-2.07,76.17-2.1,23.05-7.44,45.82-11.63,68.67-.69,3.73-.49,6.45,1.73,9.78,16.63,24.94,20.14,52.1,13.57,81.42-46.69-9.54-92.96-19-140.57-28.73,2.16-7.38,3.72-15.07,6.64-22.23,8.18-20.08,21.02-36.55,39.98-48.04,1.76-1.07,3.56-3.41,3.82-5.35,6.82-52.24,28.22-99.81,49.96-147.31-3.02,2.42,1.51-3.97.21-6.72-3.38-7.16.83-12.64,3.57-18.55,1.32-2.84,2.19-5.89,3.46-9.36,12.98,2.65,25.44,5.2,37.88,7.74.08,7.13.2,13.98.21,20.83,0,.91-.2,2.19-.82,2.68Zm179.89,35.78c-9.32,8.49-6.26,19.83-6.78,30.11-1.46,28.71-1.39,57.53-3.74,86.15-1.34,16.37-6.1,32.48-9.63,48.64-.83,3.78-.36,6.53,1.82,9.81,15.86,23.83,19.74,49.9,14.18,77.59-.22,1.12-.65,2.19-1.09,3.64-46.6-9.53-92.88-18.99-139.68-28.55,2.09-15.79,8.14-29.92,17.09-42.94,7.73-11.24,17.36-20.54,29.16-27.66,1.63-.99,3.43-3.04,3.65-4.78,5.67-43.95,21.26-84.77,39.73-124.74,3.56-7.69,6.64-15.65,9.14-23.74,1.08-3.5.08-7.61.1-11.44,0-1.46-.13-3.05.38-4.36,2-5.12,4.08-10.23,6.47-15.18.58-1.2,2.61-2.74,3.68-2.54,11.94,2.21,23.82,4.72,35.57,7.12.1,7.29.19,13.94.26,20.59,0,.78.13,1.88-.31,2.29Zm179.9,18.45c-.56,2.87-.63,5.9-.41,8.83.39,5.32.36,9.98-3.72,14.64-2.36,2.69-2.48,7.79-2.56,11.82-.42,19.09-.37,38.2-.69,57.29-.52,30.69-5.02,60.85-12.98,90.5-1,3.72-.54,6.47,1.68,9.8,16.61,24.94,19.84,52.12,13.57,81.57-47.07-9.62-93.19-19.05-140.82-28.79,2.6-8.47,4.4-16.92,7.75-24.72,8.21-19.14,20.88-34.81,39.08-45.85,1.75-1.06,3.54-3.39,3.8-5.33,5.83-43.06,20.85-83.24,38.88-122.53,3.86-8.42,7.11-17.12,10.31-25.81.91-2.48,1.77-5.98.68-7.96-2.64-4.81-.37-8.17,1.75-11.99,1.43-2.57,2.86-5.29,3.51-8.11,1.07-4.57,3.05-5.93,7.92-4.7,9.28,2.34,18.73,4.07,28.15,5.82,3.41.63,4.83,1.89,4.12,5.51Z"/>
      <path class="cls-3" d="m884.21,645.73c18.14-85.74,2.63-100.77-4.26-102.18l-578.66-118.3c-1.4-.29-4.47,2-8.18,5.46-15.13,14.11-25.33,32.58-29.55,52.69-12.85,61.21-44.32,211.03-52.27,248.91-1.7,8.08-.07,16.49,4.52,23.38h0c4.59,6.9,11.76,11.71,19.95,13.39,57.38,11.73,296.1,60.53,473.51,96.79h128.71c11.78-55.84,33.9-161.82,46.24-220.13Zm-228,37.75l-207.48-41.13c-20.08-3.98-33.08-23.27-29.05-43.07l9.09-44.61c5.96-29.24,34.81-48.18,64.45-42.31l190.17,37.7c29.64,5.88,48.84,34.34,42.88,63.58l-5.61,27.53c-5.96,29.24-34.81,48.18-64.45,42.31Z"/>
    </g>
  </g>
</svg>